<svg xmlns="http://www.w3.org/2000/svg" width="328.114" height="40.08" viewBox="0 0 328.114 40.08">
  <g id="Group_937" data-name="Group 937" transform="translate(-162.959 -477.282)">
    <g id="Group_3" data-name="Group 3" transform="translate(162.959 477.282)">
      <g id="Group_1" data-name="Group 1" transform="translate(98.536 0.408)">
        <path id="Path_1" data-name="Path 1" d="M260.641,477.687h8.168v32.5h17.968v7.175H260.641Z" transform="translate(-260.641 -477.687)" fill="#518e2a"/>
      </g>
      <g id="Group_2" data-name="Group 2" transform="translate(17.673 0.408)">
        <path id="Path_2" data-name="Path 2" d="M180.479,497.814v19.369h8.168V505.106h15.81v-7.292Z" transform="translate(-180.479 -477.511)" fill="#518e2a"/>
        <path id="Path_3" data-name="Path 3" d="M188.647,484.863h17.385v-7.176H180.479v7.176Z" transform="translate(-180.479 -477.687)" fill="#518e2a"/>
      </g>
      <path id="Path_4" data-name="Path 4" d="M232.816,498.751l-19.544-21.469V488.74l19.544,21.469,12.076-13.467v20.62h7.176v-40.08Z" transform="translate(-162.519 -477.282)" fill="#518e2a"/>
      <path id="Path_5" data-name="Path 5" d="M162.959,477.687h8.168v39.671h-8.168Z" transform="translate(-162.959 -477.279)" fill="#518e2a"/>
    </g>
    <g id="Group_5" data-name="Group 5" transform="translate(311.345 487.7)">
      <g id="Group_4" data-name="Group 4">
        <path id="Path_6" data-name="Path 6" d="M310.07,488.37h1.463v9.47H310.07Z" transform="translate(-310.059 -487.603)" fill="#444e57"/>
        <path id="Path_7" data-name="Path 7" d="M313.509,491.96h1.406l-.027,1.086a2.118,2.118,0,0,1,1.978-1.212c1.294,0,2.186.92,2.186,2.508v3.467h-1.406v-3.357c0-.834-.39-1.322-1.213-1.322a1.4,1.4,0,0,0-1.518,1.5v3.176h-1.406Z" transform="translate(-310.029 -487.573)" fill="#444e57"/>
        <path id="Path_8" data-name="Path 8" d="M320.191,496.723l.961-.668a1.807,1.807,0,0,0,1.574.752c.71,0,1.031-.236,1.031-.626,0-.473-.432-.543-1.42-.821-.864-.237-1.728-.642-1.728-1.8s.933-1.727,2.089-1.727a2.662,2.662,0,0,1,2.035.877l-.823.808a1.579,1.579,0,0,0-1.212-.57c-.53,0-.821.195-.821.543,0,.446.362.544,1.281.781s1.922.6,1.922,1.838c0,1-.612,1.824-2.27,1.824A2.989,2.989,0,0,1,320.191,496.723Z" transform="translate(-309.97 -487.573)" fill="#444e57"/>
        <path id="Path_9" data-name="Path 9" d="M326.689,495.858V493.17h-.878v-1.184h.878v-3.05H328.1v3.05h1.56v1.184H328.1v2.717c0,.668.223.862.584.862a1.039,1.039,0,0,0,.7-.278l.668.947a2.069,2.069,0,0,1-1.5.558C327.441,497.975,326.689,497.418,326.689,495.858Z" transform="translate(-309.921 -487.598)" fill="#444e57"/>
        <path id="Path_10" data-name="Path 10" d="M330.933,489.716a.934.934,0,1,1,.934.934A.921.921,0,0,1,330.933,489.716Zm.224,2.271h1.42v5.85h-1.42Z" transform="translate(-309.877 -487.6)" fill="#444e57"/>
        <path id="Path_11" data-name="Path 11" d="M334.821,495.858V493.17h-.877v-1.184h.877v-3.05h1.408v3.05h1.56v1.184h-1.56v2.717c0,.668.223.862.584.862a1.039,1.039,0,0,0,.7-.278l.668.947a2.068,2.068,0,0,1-1.5.558C335.574,497.975,334.821,497.418,334.821,495.858Z" transform="translate(-309.85 -487.598)" fill="#444e57"/>
        <path id="Path_12" data-name="Path 12" d="M339.261,495.441v-3.482h1.406v3.371c0,.836.389,1.322,1.211,1.322a1.391,1.391,0,0,0,1.491-1.518v-3.176h1.406v5.85H343.37l.027-1.072a2.092,2.092,0,0,1-1.963,1.2C340.152,497.934,339.261,497.029,339.261,495.441Z" transform="translate(-309.804 -487.572)" fill="#444e57"/>
        <path id="Path_13" data-name="Path 13" d="M346.945,495.858V493.17h-.877v-1.184h.877v-3.05h1.407v3.05h1.56v1.184h-1.56v2.717c0,.668.223.862.585.862a1.036,1.036,0,0,0,.7-.278l.669.947a2.07,2.07,0,0,1-1.5.558C347.7,497.975,346.945,497.418,346.945,495.858Z" transform="translate(-309.744 -487.598)" fill="#444e57"/>
        <path id="Path_14" data-name="Path 14" d="M354.367,496.752a2.366,2.366,0,0,0,1.657-.626l.822.864a3.28,3.28,0,0,1-2.464.946,3.055,3.055,0,1,1-.182-6.1c1.991,0,3.119,1.477,3.022,3.525h-4.708A1.688,1.688,0,0,0,354.367,496.752Zm1.434-2.368a1.489,1.489,0,0,0-1.588-1.379,1.607,1.607,0,0,0-1.7,1.379Z" transform="translate(-309.7 -487.573)" fill="#444e57"/>
        <path id="Path_15" data-name="Path 15" d="M362.342,493.181h-.961V492h.961v-2.312c0-1.406.682-2.075,1.879-2.075a1.987,1.987,0,0,1,1.657.724l-.835.892a.83.83,0,0,0-.682-.348c-.363,0-.613.208-.613.793V492h1.575v1.184h-1.575v4.665h-1.406Z" transform="translate(-309.61 -487.61)" fill="#444e57"/>
        <path id="Path_16" data-name="Path 16" d="M366.185,494.885a3.157,3.157,0,1,1,3.161,3.049A3.058,3.058,0,0,1,366.185,494.885Zm4.861,0a1.71,1.71,0,1,0-3.413,0,1.711,1.711,0,1,0,3.413,0Z" transform="translate(-309.568 -487.573)" fill="#444e57"/>
        <path id="Path_17" data-name="Path 17" d="M373.918,491.96h1.406l-.013,1.1a1.772,1.772,0,0,1,1.7-1.211,1.747,1.747,0,0,1,.961.251l-.474,1.266a1.6,1.6,0,0,0-.766-.195c-.836,0-1.407.488-1.407,1.8v2.841h-1.406Z" transform="translate(-309.501 -487.573)" fill="#444e57"/>
        <path id="Path_18" data-name="Path 18" d="M382.478,488.37h5.891v1.294h-4.414v3.8h4.011v1.309h-4.011v3.063h-1.477Z" transform="translate(-309.426 -487.603)" fill="#444e57"/>
        <path id="Path_19" data-name="Path 19" d="M389.258,494.885a3.157,3.157,0,1,1,3.161,3.049A3.058,3.058,0,0,1,389.258,494.885Zm4.861,0a1.71,1.71,0,1,0-3.413,0,1.711,1.711,0,1,0,3.413,0Z" transform="translate(-309.367 -487.573)" fill="#444e57"/>
        <path id="Path_20" data-name="Path 20" d="M396.936,495.441v-3.482h1.406v3.371c0,.836.39,1.322,1.212,1.322a1.391,1.391,0,0,0,1.491-1.518v-3.176h1.406v5.85h-1.406l.027-1.072a2.092,2.092,0,0,1-1.963,1.2C397.828,497.934,396.936,497.029,396.936,495.441Z" transform="translate(-309.299 -487.572)" fill="#444e57"/>
        <path id="Path_21" data-name="Path 21" d="M404.171,491.96h1.406l-.027,1.086a2.118,2.118,0,0,1,1.978-1.212c1.294,0,2.186.92,2.186,2.508v3.467h-1.406v-3.357c0-.834-.39-1.322-1.212-1.322a1.4,1.4,0,0,0-1.518,1.5v3.176h-1.406Z" transform="translate(-309.236 -487.573)" fill="#444e57"/>
        <path id="Path_22" data-name="Path 22" d="M411.1,494.907a2.839,2.839,0,0,1,2.716-3.036,2.182,2.182,0,0,1,2.034,1.142V487.79h1.42v10.055h-1.42l.041-1.058a2.19,2.19,0,0,1-2.047,1.183A2.867,2.867,0,0,1,411.1,494.907Zm4.8,0a1.645,1.645,0,0,0-1.7-1.782,1.81,1.81,0,0,0,0,3.607A1.658,1.658,0,0,0,415.908,494.907Z" transform="translate(-309.176 -487.608)" fill="#444e57"/>
        <path id="Path_23" data-name="Path 23" d="M421.358,493.005a1.911,1.911,0,0,0-1.531.7l-.808-.821a2.912,2.912,0,0,1,2.45-1.045,2.285,2.285,0,0,1,2.466,2.521v3.454h-1.407l.041-.835a2.02,2.02,0,0,1-1.838.96c-1.157,0-2.1-.543-2.1-1.852,0-1.212.974-1.74,2.3-1.755h1.6C422.528,493.395,422.11,493.005,421.358,493.005Zm-.335,2.3c-.612,0-1.017.223-1.017.738s.39.766,1.115.766c.822,0,1.407-.4,1.407-1.044v-.46Z" transform="translate(-309.11 -487.573)" fill="#444e57"/>
        <path id="Path_24" data-name="Path 24" d="M425.982,495.858V493.17H425.1v-1.184h.878v-3.05h1.407v3.05h1.56v1.184h-1.56v2.717c0,.668.223.862.584.862a1.039,1.039,0,0,0,.7-.278l.668.947a2.069,2.069,0,0,1-1.5.558C426.734,497.975,425.982,497.418,425.982,495.858Z" transform="translate(-309.053 -487.598)" fill="#444e57"/>
        <path id="Path_25" data-name="Path 25" d="M430.226,489.716a.934.934,0,1,1,.934.934A.921.921,0,0,1,430.226,489.716Zm.224,2.271h1.42v5.85h-1.42Z" transform="translate(-309.008 -487.6)" fill="#444e57"/>
        <path id="Path_26" data-name="Path 26" d="M433.375,494.885a3.157,3.157,0,1,1,3.161,3.049A3.058,3.058,0,0,1,433.375,494.885Zm4.861,0a1.71,1.71,0,1,0-3.413,0,1.711,1.711,0,1,0,3.413,0Z" transform="translate(-308.981 -487.573)" fill="#444e57"/>
        <path id="Path_27" data-name="Path 27" d="M441.107,491.96h1.406l-.027,1.086a2.117,2.117,0,0,1,1.978-1.212c1.294,0,2.186.92,2.186,2.508v3.467h-1.406v-3.357c0-.834-.39-1.322-1.213-1.322a1.4,1.4,0,0,0-1.518,1.5v3.176h-1.406Z" transform="translate(-308.913 -487.573)" fill="#444e57"/>
        <path id="Path_28" data-name="Path 28" d="M447.79,496.723l.961-.668a1.808,1.808,0,0,0,1.574.752c.71,0,1.03-.236,1.03-.626,0-.473-.432-.543-1.419-.821-.864-.237-1.728-.642-1.728-1.8s.933-1.727,2.089-1.727a2.659,2.659,0,0,1,2.034.877l-.822.808a1.579,1.579,0,0,0-1.212-.57c-.53,0-.821.195-.821.543,0,.446.362.544,1.281.781s1.922.6,1.922,1.838c0,1-.612,1.824-2.27,1.824A2.989,2.989,0,0,1,447.79,496.723Z" transform="translate(-308.855 -487.573)" fill="#444e57"/>
        <path id="Path_29" data-name="Path 29" d="M456.917,494.885a3.157,3.157,0,1,1,3.162,3.049A3.058,3.058,0,0,1,456.917,494.885Zm4.861,0a1.71,1.71,0,1,0-3.413,0,1.711,1.711,0,1,0,3.413,0Z" transform="translate(-308.775 -487.573)" fill="#444e57"/>
        <path id="Path_30" data-name="Path 30" d="M465.044,493.181h-.961V492h.961v-2.312c0-1.406.682-2.075,1.88-2.075a1.987,1.987,0,0,1,1.657.724l-.836.892a.827.827,0,0,0-.682-.348c-.362,0-.612.208-.612.793V492h1.574v1.184h-1.574v4.665h-1.407Z" transform="translate(-308.712 -487.61)" fill="#444e57"/>
        <path id="Path_31" data-name="Path 31" d="M310.059,505.045h.191l5.811,6.384,5.725-6.384h.208v11.918h-2.341v-4.424c0-.8.086-2.064.086-2.064a20.826,20.826,0,0,1-1.266,1.665l-2.341,2.619h-.225l-2.343-2.619a20.822,20.822,0,0,1-1.266-1.665s.088,1.266.088,2.064v4.424h-2.325Z" transform="translate(-310.059 -487.458)" fill="#444e57"/>
        <path id="Path_32" data-name="Path 32" d="M329.514,505.063h.208l5.395,11.9h-2.55l-.555-1.337h-4.787l-.555,1.337h-2.342Zm1.63,8.534-.849-2.046c-.347-.833-.711-2.117-.711-2.117a21.417,21.417,0,0,1-.694,2.117l-.85,2.046Z" transform="translate(-309.934 -487.457)" fill="#444e57"/>
        <path id="Path_33" data-name="Path 33" d="M336.034,511.065a5.941,5.941,0,0,1,6.072-6.036,5.145,5.145,0,0,1,4.718,2.411l-1.856,1.318a3.214,3.214,0,0,0-2.862-1.544,3.881,3.881,0,0,0,0,7.737,3.361,3.361,0,0,0,3.035-1.734l1.89,1.3a5.55,5.55,0,0,1-4.926,2.6A5.955,5.955,0,0,1,336.034,511.065Z" transform="translate(-309.832 -487.458)" fill="#444e57"/>
        <path id="Path_34" data-name="Path 34" d="M349.581,505.166h2.428v5.074h5.049v-5.074h2.428v11.8h-2.428v-4.554h-5.049v4.554h-2.428Z" transform="translate(-309.713 -487.456)" fill="#444e57"/>
        <path id="Path_35" data-name="Path 35" d="M362.749,505.166h2.429v11.8h-2.429Z" transform="translate(-309.598 -487.456)" fill="#444e57"/>
        <path id="Path_36" data-name="Path 36" d="M371.994,511.482a17.676,17.676,0,0,1-1.4-1.614,20.767,20.767,0,0,1,.173,2.151v4.945h-2.273v-11.9h.243l5.95,5.585a16.708,16.708,0,0,1,1.388,1.613s-.156-1.335-.156-2.151v-4.944h2.273v11.9h-.243Z" transform="translate(-309.548 -487.457)" fill="#444e57"/>
        <path id="Path_37" data-name="Path 37" d="M381.4,505.166h7.807V507.3h-5.379v2.784h4.737v2.081h-4.737v2.663h5.621v2.134H381.4Z" transform="translate(-309.435 -487.456)" fill="#444e57"/>
        <path id="Path_38" data-name="Path 38" d="M411.417,505.166h7.806V507.3h-5.378v2.784h4.736v2.081h-4.736v2.663h5.621v2.134h-8.049Z" transform="translate(-309.173 -487.456)" fill="#444e57"/>
        <path id="Path_39" data-name="Path 39" d="M401.257,505.166h2.428v9.662h5.343v2.134h-7.771Z" transform="translate(-309.262 -487.456)" fill="#444e57"/>
        <path id="Path_40" data-name="Path 40" d="M426.814,505.063h.209l5.395,11.9h-2.55l-.555-1.337h-4.789l-.555,1.337h-2.341Zm1.631,8.534-.849-2.046c-.348-.833-.712-2.117-.712-2.117a21.425,21.425,0,0,1-.694,2.117l-.849,2.046Z" transform="translate(-309.084 -487.457)" fill="#444e57"/>
        <path id="Path_41" data-name="Path 41" d="M443.47,516.962h-2.81l-1.943-2.984a4.57,4.57,0,0,1-.694.051h-.832v2.932h-2.428v-11.8h3.26c3.3,0,5.274,1.579,5.274,4.459a3.67,3.67,0,0,1-2.273,3.66Zm-5.516-5.048c1.977,0,2.845-.624,2.845-2.29s-.9-2.325-2.845-2.325h-.764v4.615Z" transform="translate(-308.969 -487.456)" fill="#444e57"/>
        <path id="Path_42" data-name="Path 42" d="M449.68,511.482a17.573,17.573,0,0,1-1.405-1.614,20.77,20.77,0,0,1,.173,2.151v4.945h-2.272v-11.9h.242l5.95,5.585a16.712,16.712,0,0,1,1.388,1.613s-.156-1.335-.156-2.151v-4.944h2.274v11.9h-.243Z" transform="translate(-308.869 -487.457)" fill="#444e57"/>
        <path id="Path_43" data-name="Path 43" d="M459.138,505.166h2.429v11.8h-2.429Z" transform="translate(-308.756 -487.456)" fill="#444e57"/>
        <path id="Path_44" data-name="Path 44" d="M468.383,511.482a17.577,17.577,0,0,1-1.405-1.614,20.763,20.763,0,0,1,.174,2.151v4.945h-2.273v-11.9h.243l5.95,5.585a16.712,16.712,0,0,1,1.388,1.613s-.156-1.335-.156-2.151v-4.944h2.274v11.9h-.244Z" transform="translate(-308.705 -487.457)" fill="#444e57"/>
        <path id="Path_45" data-name="Path 45" d="M477.4,511.065a5.8,5.8,0,0,1,6.019-6.036,5.316,5.316,0,0,1,4.285,1.63l-1.648,1.63a3.271,3.271,0,0,0-2.637-1.075,3.538,3.538,0,0,0-3.522,3.851,3.673,3.673,0,0,0,3.9,3.886,5.815,5.815,0,0,0,2.308-.434v-1.734h-2.845v-2.135h5.065v5.1a7.674,7.674,0,0,1-4.528,1.37C479.945,517.119,477.4,514.552,477.4,511.065Z" transform="translate(-308.596 -487.458)" fill="#444e57"/>
      </g>
    </g>
  </g>
</svg>
