<?xml version="1.0" encoding="UTF-8"?><svg id="Layer_2" xmlns="http://www.w3.org/2000/svg" width="300" height="68.59" viewBox="0 0 300 68.59"><defs><style>.cls-1{fill:#006ba6;}</style></defs><g id="Layer_1-2"><g id="Group_1917"><path id="Path_4158" class="cls-1" d="M0,50.69H6.9c5.56,0,9.4,3.81,9.4,8.79v.05c0,4.98-3.84,8.84-9.4,8.84H0v-17.68Zm3.89,3.51v10.66h3.01c2.78,.16,5.16-1.95,5.33-4.73,.01-.18,.01-.37,0-.55v-.05c.14-2.8-2.01-5.19-4.81-5.33-.17,0-.34,0-.52,0H3.89Z"/><path id="Path_4159" class="cls-1" d="M20.22,53.35h3.31v15.03h-3.31v-15.03Z"/><path id="Path_4160" class="cls-1" d="M27.23,53.35h3.65l3.93,10.58,3.93-10.58h3.56l-6.08,15.14h-2.92l-6.08-15.14Z"/><path id="Path_4161" class="cls-1" d="M46.05,53.35h3.31v15.03h-3.31v-15.03Z"/><path id="Path_4162" class="cls-1" d="M53.52,66.19l1.95-2.34c1.23,1.13,2.82,1.78,4.49,1.82,1.35,0,2.17-.54,2.17-1.42v-.04c0-.84-.52-1.27-3.03-1.91-3.03-.77-4.98-1.61-4.98-4.59v-.04c0-2.72,2.19-4.53,5.26-4.53,2.03-.03,4,.64,5.58,1.91l-1.72,2.49c-1.12-.88-2.49-1.39-3.91-1.48-1.27,0-1.93,.58-1.93,1.31v.04c0,.98,.64,1.31,3.24,1.98,3.05,.79,4.77,1.89,4.77,4.51v.04c0,2.99-2.28,4.66-5.52,4.66-2.35,0-4.62-.85-6.38-2.4Z"/><path id="Path_4163" class="cls-1" d="M69.9,53.35h3.3v15.03h-3.31v-15.03Z"/><path id="Path_4164" class="cls-1" d="M77.69,60.9v-.04c.15-4.41,3.84-7.87,8.25-7.72,4.19,.14,7.55,3.49,7.72,7.67v.04c-.15,4.41-3.84,7.87-8.26,7.72-4.19-.14-7.55-3.49-7.72-7.67Zm12.52,0v-.04c.09-2.52-1.89-4.63-4.41-4.72-.05,0-.1,0-.15,0-2.48-.01-4.5,1.99-4.51,4.48,0,.07,0,.14,0,.2v.04c-.09,2.52,1.89,4.63,4.41,4.72,.05,0,.1,0,.15,0,2.48,.01,4.5-1.99,4.51-4.48,0-.07,0-.14,0-.21Z"/><path id="Path_4165" class="cls-1" d="M98.08,53.35h3.05l7.04,9.25v-9.25h3.26v15.03h-2.81l-7.28-9.56v9.56h-3.26v-15.03Z"/><path id="Path_4166" class="cls-1" d="M123.83,60.9v-.04c.15-4.41,3.84-7.87,8.25-7.72,4.19,.14,7.55,3.49,7.72,7.67v.04c-.15,4.41-3.84,7.87-8.26,7.72-4.19-.14-7.55-3.49-7.72-7.67Zm12.52,0v-.04c.09-2.52-1.89-4.63-4.41-4.72-.05,0-.1,0-.15,0-2.48-.01-4.5,1.99-4.51,4.48,0,.07,0,.14,0,.2v.04c-.09,2.52,1.89,4.63,4.41,4.72,.05,0,.1,0,.15,0,2.48,.01,4.5-1.99,4.51-4.48,0-.07,0-.14,0-.21h0Z"/><path id="Path_4167" class="cls-1" d="M144.22,53.35h11.44v3.01h-8.14v3.2h7.17v3.01h-7.17v5.82h-3.31v-15.03Z"/><path id="Path_4168" class="cls-1" d="M167.7,50.57h8.08c1.89-.12,3.75,.53,5.15,1.79,1.03,1.09,1.57,2.55,1.51,4.04v.05c.12,2.47-1.44,4.72-3.79,5.48l4.32,6.31h-4.55l-3.79-5.66h-3.06v5.66h-3.89v-17.68Zm7.83,8.59c1.89,0,2.98-1.01,2.98-2.5v-.05c0-1.67-1.16-2.53-3.06-2.53h-3.86v5.07h3.94Z"/><path id="Path_4169" class="cls-1" d="M187.69,53.22h11.34v2.94h-8.05v3.05h7.09v2.94h-7.09v3.16h8.16v2.94h-11.45v-15.03Z"/><path id="Path_4170" class="cls-1" d="M202.6,66.06l1.95-2.34c1.23,1.13,2.82,1.78,4.49,1.82,1.35,0,2.17-.54,2.17-1.42v-.04c0-.84-.51-1.27-3.03-1.91-3.03-.77-4.98-1.61-4.98-4.59v-.04c0-2.72,2.19-4.53,5.26-4.53,2.03-.03,4,.64,5.58,1.91l-1.72,2.49c-1.12-.88-2.49-1.39-3.91-1.48-1.27,0-1.93,.58-1.93,1.31v.04c0,.98,.64,1.31,3.24,1.97,3.05,.79,4.77,1.89,4.77,4.51v.04c0,2.98-2.28,4.66-5.52,4.66-2.35,0-4.62-.85-6.38-2.4Z"/><path id="Path_4171" class="cls-1" d="M218.92,53.22h11.34v2.94h-8.05v3.05h7.09v2.94h-7.09v3.16h8.16v2.94h-11.44v-15.03Z"/><path id="Path_4172" class="cls-1" d="M240.14,53.11h3.05l6.44,15.14h-3.46l-1.37-3.37h-6.36l-1.37,3.37h-3.37l6.44-15.14Zm3.48,8.85l-2-4.87-2,4.87h4Z"/><path id="Path_4173" class="cls-1" d="M253.31,53.22h6.87c1.61-.1,3.18,.45,4.38,1.52,.87,.92,1.34,2.16,1.29,3.44v.04c.1,2.1-1.22,4.01-3.22,4.66l3.67,5.37h-3.86l-3.22-4.81h-2.6v4.81h-3.31v-15.03Zm6.65,7.3c1.61,0,2.53-.86,2.53-2.13v-.04c0-1.42-.98-2.15-2.6-2.15h-3.28v4.31h3.35Z"/><path id="Path_4174" class="cls-1" d="M269.47,60.78v-.04c-.07-4.22,3.28-7.7,7.5-7.77,.11,0,.22,0,.33,0,2.22-.11,4.37,.73,5.93,2.32l-2.1,2.43c-1.01-1.05-2.39-1.66-3.84-1.7-2.46,.05-4.41,2.08-4.36,4.54,0,.05,0,.09,0,.14v.04c0,2.57,1.78,4.72,4.36,4.72,1.5-.01,2.93-.65,3.95-1.76l2.1,2.13c-1.53,1.79-3.81,2.78-6.16,2.68-4.19,.07-7.64-3.27-7.71-7.46,0-.09,0-.18,0-.27Z"/><path id="Path_4175" class="cls-1" d="M287.29,53.22h3.31v5.95h6.1v-5.95h3.31v15.03h-3.31v-6.03h-6.1v6.03h-3.31v-15.03Z"/></g><g id="Layer_2-2"><g id="Layer_1-2"><path class="cls-1" d="M20.11,9.05c-.36-.32-.78-.56-1.23-.73l-.7,14.19,3.53-9.81c.33-1.5-.5-2.73-1.59-3.66Z"/><path class="cls-1" d="M14.28,8.2l2.07,14.16,2.02-14.15c-1.32-.49-2.77-.5-4.09,0Z"/><path class="cls-1" d="M12.57,9.04c-1.09,.93-1.92,2.16-1.58,3.66l3.53,9.81-.72-14.19c-.45,.17-.86,.41-1.23,.73Z"/><path class="cls-1" d="M5.47,10.38c2.37,4.13,4.75,8.55,7.12,12.52-.83-3.47-1.68-9.23-2.88-10.84-1.41-1.95-4.24-1.68-4.24-1.68Z"/><path class="cls-1" d="M1.29,12.46l9.65,11.18L4.95,10.45c-1.47,.05-2.83,.79-3.66,2.01Z"/><path class="cls-1" d="M21.45,15.48l-1.58,7.66c2.07-3.58,4.09-7.12,6.08-10.68-1.92,.14-3.86,.88-4.49,3.02Z"/><path class="cls-1" d="M26.51,12.46l-5.11,11.36,8.96-9.76c-1.01-1.04-2.4-1.62-3.85-1.6Z"/><path class="cls-1" d="M.03,17.51c3.17,2.42,6.25,4.91,9.42,7.33L.98,12.84C.22,14.27-.11,15.9,.03,17.51Z"/><path class="cls-1" d="M31.45,15.45c-.18-.39-.43-.74-.74-1.03l-7.72,10.55c3.05-2.28,6.01-4.61,8.95-6.94,.07-.89-.1-1.78-.48-2.58Z"/><path class="cls-1" d="M.03,22.39l8.21,3.79C5.57,23.46,2.81,20.83,.03,18.15v4.23Z"/><path class="cls-1" d="M31.97,22.67v-3.87l-7.74,7.52c2.63-1.2,5.08-2.38,7.74-3.65Z"/><path class="cls-1" d="M.03,26.12c2.47,.55,5.16,1.24,7.4,1.73L.03,22.95v3.17Z"/><path class="cls-1" d="M31.97,26.38v-2.98c-2.32,1.48-4.75,3.02-6.88,4.55l6.88-1.57Z"/><polygon class="cls-1" points=".05 29.86 7.27 29.86 .05 26.76 .05 29.86"/><path class="cls-1" d="M31.97,29.86v-2.82c-2.37,1.02-4.44,1.87-6.68,2.82h6.68Z"/><path class="cls-1" d="M29.48,8.71c.09-4.33-6.29-4.36-6.17,0-.06,3.96,6.32,4.17,6.17,0Z"/><path class="cls-1" d="M8.85,6.45c.21-4.34-6.53-4.17-6.27,0-.23,4.33,6.68,4.39,6.27,0Z"/><path class="cls-1" d="M16.36,7.29c2.5,.07,3.5-1.75,3.56-3.49,.1-2.68-1.58-3.8-3.55-3.8s-3.62,1.19-3.51,3.8c.06,1.45,.68,3.41,3.51,3.49Z"/><rect class="cls-1" x="69.47" y="12.69" width="2.94" height="17"/><path class="cls-1" d="M59.07,12.66l-4.99,14.45-4.86-6.13,6.47-8.33h-3.38l-6.01,8.07V12.66h-2.94V29.69h2.94v-8.38l6.22,8.39h3.53l1.58-4.91h6.24l1.64,4.89h3.05l-5.86-17.02h-3.63Zm-.67,9.73l2.26-7.04h.07l2.37,7.04h-4.71Z"/><path class="cls-1" d="M167.66,25l-2.94-12.34h-5.14V29.68h2.88V15.19l3.76,14.5h2.94l3.71-14.47v14.47h2.84V12.66h-5.02l-3.04,12.34Z"/><path class="cls-1" d="M183.07,12.66l-5.89,17.02h2.88l1.58-4.91h6.24l1.65,4.91h3.07l-5.9-17.03h-3.63Zm-.67,9.73l2.26-7.04h.07l2.37,7.04h-4.7Z"/><path class="cls-1" d="M204.5,25.81l-6.75-13.14h-3.84V29.68h2.77v-12.81l6.66,12.81h4.02V12.66h-2.83l-.03,13.14Z"/><path class="cls-1" d="M260.12,27.22h-6.97v-4.8h5.17v-2.47h-5.17v-4.81h6.39v-2.47h-9.29V29.68h9.89l-.02-2.46Z"/><path class="cls-1" d="M233.37,12.66h-.53v13.28l-6.76-13.28h-3.87v14.55h-8.91v-4.8h5.14v-2.47h-5.14v-4.81h6.38v-2.47h-9.29V29.68h14.61v-12.95l6.66,12.95h4.02V15.25h5.15v14.44h2.94V15.25h5.03v-2.59h-15.43Z"/><path class="cls-1" d="M155.34,21.13c1.03-.92,1.61-2.24,1.58-3.62,.03-1.37-.55-2.69-1.58-3.59-.99-.9-2.45-1.26-4.89-1.26h-4.93v7.2h0v7.34h-8.99v-4.8h5.16v-2.47h-5.17v-4.81h6.39v-2.47h-9.3V29.68h14.84v-7.22h1.46c1.35,2.12,4.22,7.26,4.22,7.26h3.51l-4.57-7.49c.84-.16,1.63-.54,2.28-1.09Zm-6.88-1.16v-4.8h2.48c2.22,0,3.12,.88,3.12,2.37,0,1.63-.89,2.43-3.12,2.43h-2.48Z"/><path class="cls-1" d="M108.99,21.13c1.03-.92,1.61-2.24,1.58-3.62,.03-1.37-.55-2.69-1.58-3.59-1.02-.89-2.47-1.23-4.92-1.23h-4.93v7.18h0v7.34h-8.95v-4.8h5.17v-2.47h-5.17v-4.81h6.39v-2.47h-9.29V29.68h14.83v-7.22h1.46c1.35,2.12,4.21,7.26,4.21,7.26h3.51l-4.57-7.49c.84-.16,1.63-.54,2.28-1.09Zm-6.88-1.16v-4.8h2.48c2.22,0,3.13,.88,3.13,2.37,0,1.63-.89,2.43-3.13,2.43h-2.48Z"/><path class="cls-1" d="M130.21,13.96c-1.03-.89-2.47-1.28-4.92-1.28h-4.93v10.02h0v7h2.95v-7h1.98c2.45,0,3.88-.43,4.9-1.32,1.03-.95,1.61-2.3,1.58-3.7,.04-1.4-.53-2.76-1.56-3.71Zm-4.43,6.24h-2.48v-5.03h2.48c2.22,0,3.13,.99,3.13,2.48s-1.01,2.56-3.12,2.56h0Z"/><path class="cls-1" d="M80.99,19.78c-2.31-.87-3.4-1.5-3.4-2.84,0-1.02,1.03-2.19,3.08-2.19,1.27,.02,2.53,.33,3.66,.89v-2.45c-1.13-.51-2.36-.78-3.6-.79-3.64,0-6.15,2.06-6.15,4.82,0,2.46,1.88,3.96,4.75,4.92,2.22,.79,3.17,1.58,3.17,2.88s-1.22,2.45-3.25,2.45c-1.63,0-3.23-.43-4.65-1.23v2.64c1.38,.67,2.9,1.01,4.44,1,4.39,0,6.47-2.37,6.47-5.06,0-2.48-1.58-3.94-4.51-5.03Z"/><path class="cls-1" d="M262.81,26.68c.05-1.54,1.34-2.75,2.88-2.71,1.54,.05,2.75,1.34,2.71,2.88-.05,1.5-1.28,2.7-2.78,2.71-1.54,0-2.79-1.23-2.8-2.77,0-.04,0-.07,0-.11Zm2.8,3.46c1.9-.03,3.42-1.6,3.39-3.5-.03-1.9-1.6-3.42-3.5-3.39-1.87,.03-3.38,1.55-3.39,3.43,0,1.9,1.52,3.44,3.42,3.45,.03,0,.05,0,.08,0h0Zm-.72-3.16h.69l1.04,1.73h.67l-1.12-1.8c.57,0,1.03-.47,1.03-1.04,0-.02,0-.03,0-.05,0-.79-.46-1.13-1.4-1.13h-1.51v3.96h.6v-1.66Zm0-.51v-1.25h.79c.42,0,.86,.09,.86,.58,0,.61-.45,.65-.96,.65l-.7,.02Z"/></g></g></g></svg>