<svg xmlns="http://www.w3.org/2000/svg" viewBox="0 0 232 85" width="232" height="85">
  <!-- Background squares -->
  <rect x="3.27" y="2.97" width="79.55" height="79.54" fill="#92cbad"/>
  <rect x="13.32" y="13.02" width="59.45" height="59.45" fill="#49a876"/>
  <rect x="23.36" y="23.06" width="39.36" height="39.36" fill="#00853f"/>
  <rect x="33.41" y="33.11" width="19.27" height="19.27" fill="#00592a"/>
  
  <!-- Full text: "Peterson Health Technology Institute" -->
  <!-- First line: "Peterson" -->
  <path d="M91.6 19.08V2.97h5.89c3.48 0 5.69 1.45 5.69 4.8s-2.21 4.8-5.69 4.8h-2.81v6.51h-3.08zm3.08-9.01h2.45c2.32 0 2.97-0.87 2.97-2.3s-0.65-2.3-2.97-2.3h-2.45v4.6z" fill="#261c02"/>
  <path d="M105.58 19.08V2.97h10.66v2.59h-7.59v3.84h5.51v2.59h-5.51v4.51h7.83v2.59h-10.91z" fill="#261c02"/>
  <path d="M129.3 2.95v2.59h-4.22v13.54h-3.08V5.54h-4.22v-2.59h11.51z" fill="#261c02"/>
  <path d="M131.62 19.08V2.97h10.66v2.59h-7.59v3.84h5.51v2.59h-5.51v4.51h7.83v2.59h-10.91z" fill="#261c02"/>
  <path d="M145.11 19.08V2.97h6.43c3.66 0 5.13 2.12 5.15 4.77 0.02 1.99-0.98 3.59-2.94 4.15l3.55 7.18h-3.41l-3.03-6.56h-2.66v6.56h-3.08zm3.08-9.06h2.28c2.41 0 3.15-0.76 3.15-2.28s-0.91-2.28-2.61-2.28h-2.81v4.55z" fill="#261c02"/>
  <path d="M167.6 7.25c-0.47-1.25-1.43-2.1-2.88-2.1-1.34 0-2.3 0.53-2.3 1.78 0 2.77 8.3 2.19 8.3 7.41 0 3.3-2.08 4.95-5.64 4.95-2.63 0-5.11-1.47-6.02-3.82l2.54-1.11c0.74 1.52 1.7 2.52 3.5 2.52 1.54 0 2.72-0.58 2.72-2.14 0-3.17-8.3-2.54-8.3-7.5 0-2.88 2.41-4.51 5.2-4.51 2.59 0 4.73 1.29 5.69 3.64l-2.81 0.87z" fill="#261c02"/>
  <path d="M179.31 19.3c-4.4 0-6.76-3.01-6.76-8.28s2.36-8.28 6.76-8.28 6.76 3.01 6.76 8.28-2.37 8.28-6.76 8.28zm0-13.97c-2.52 0-3.68 1.92-3.68 5.69-0.04 3.77 1.14 5.69 3.68 5.69s3.68-1.92 3.68-5.69-1.16-5.69-3.68-5.69z" fill="#261c02"/>
  <path d="M188.57 19.08V2.97h3.21l6.34 10.98h0.04V2.97h2.9v16.11h-2.97l-6.58-11.47h-0.04v11.47h-2.9z" fill="#261c02"/>
  
  <!-- Second line: "Health" -->
  <path d="M91.6 42.4v-16.11h3.08v6.43h6.2v-6.43h3.08v16.11h-3.08v-6.92h-6.2v6.92h-3.08z" fill="#007535"/>
  <path d="M106.51 42.4v-16.11h10.66v2.59h-7.59v3.84h5.51v2.59h-5.51v4.51h7.83v2.59h-10.91z" fill="#007535"/>
  <path d="M123.3 26.27h3.84l4.57 16.13h-3.06l-0.89-3.48h-5.09l-0.96 3.48h-3.06l4.64-16.13zm0.04 10.11h3.75l-1.81-7.01h-0.04l-1.9 7.01z" fill="#007535"/>
  <path d="M133.45 42.4v-16.11h3.08v13.52h7.01v2.59h-10.08z" fill="#007535"/>
  <path d="M154.12 26.27v2.59h-4.22v13.54h-3.08v-13.54h-4.22v-2.59h11.51z" fill="#007535"/>
  <path d="M155.99 42.4v-16.11h3.08v6.43h6.2v-6.43h3.08v16.11h-3.08v-6.92h-6.2v6.92h-3.08z" fill="#007535"/>
  
  <!-- Third line: "Technology" -->
  <path d="M103.11 49.61v2.59h-4.22v13.54h-3.08v-13.54h-4.22v-2.59h11.51z" fill="#007535"/>
  <path d="M104.76 65.75v-16.11h10.66v2.59h-7.59v3.84h5.51v2.59h-5.51v4.51h7.83v2.59h-10.91z" fill="#007535"/>
  <path d="M125.9 54.32c-0.45-1.36-1.41-2.32-2.92-2.32-2.05 0-3.3 1.92-3.3 5.69-0.04 3.77 1.07 5.69 3.39 5.69 1.38 0 2.23-0.49 3.15-2.39l2.86 0.76c-0.96 2.79-3.06 4.22-6 4.22-4.11 0-6.47-3.01-6.47-8.28s2.36-8.28 6.47-8.28c3.08 0 4.86 1.38 5.62 4.24l-2.79 0.67z" fill="#007535"/>
  <path d="M130.96 65.75v-16.11h3.08v6.43h6.2v-6.43h3.08v16.11h-3.08v-6.92h-6.2v6.92h-3.08z" fill="#007535"/>
  <path d="M146.47 65.75v-16.11h3.21l6.34 10.98h0.04v-10.98h2.9v16.11h-2.97l-6.58-11.47h-0.04v11.47h-2.9z" fill="#007535"/>
  <path d="M167.99 65.97c-4.4 0-6.76-3.01-6.76-8.28s2.37-8.28 6.76-8.28 6.76 3.01 6.76 8.28-2.37 8.28-6.76 8.28zm0-13.97c-2.52 0-3.68 1.92-3.68 5.69-0.05 3.77 1.14 5.69 3.68 5.69s3.68-1.92 3.68-5.69-1.16-5.69-3.68-5.69z" fill="#007535"/>
  <path d="M176.99 65.75v-16.11h3.08v13.52h7.01v2.59h-10.08z" fill="#007535"/>
  <path d="M194.61 65.97c-4.4 0-6.76-3.01-6.76-8.28s2.36-8.28 6.76-8.28 6.76 3.01 6.76 8.28-2.37 8.28-6.76 8.28zm0-13.97c-2.52 0-3.68 1.92-3.68 5.69-0.04 3.77 1.14 5.69 3.68 5.69s3.68-1.92 3.68-5.69-1.16-5.69-3.68-5.69z" fill="#007535"/>
  <path d="M212.48 54.28c-0.74-1.61-1.63-2.28-3.24-2.28-2.28 0-3.39 2.28-3.39 5.85s1.27 5.53 3.41 5.53c2.01 0 3.3-1.34 3.37-3.19h-3.06v-2.59h6.02v8.14h-2.23v-1.65c-1.29 1.43-2.5 1.87-4.19 1.87-4.37 0-6.4-3.48-6.4-8.03 0-4.11 1.56-8.52 6.72-8.52 3.21 0 5.09 1.74 5.85 4.11l-2.86 0.76z" fill="#007535"/>
  <path d="M222.2 56.02l2.77-6.38h3.21l-4.44 9.68v6.43h-3.08v-6.43l-4.44-9.68h3.21l2.77 6.38z" fill="#007535"/>
  
  <!-- Fourth line: "Institute" -->
  <path d="M96.43 82.48v-9.52h1.82v9.52h-1.82z" fill="#7f8386"/>
  <path d="M102.79 82.48v-9.52h1.9l3.74 6.49h0.03v-6.49h1.71v9.52h-1.75l-3.89-6.78h-0.03v6.78h-1.71z" fill="#7f8386"/>
  <path d="M119.06 75.49c-0.28-0.74-0.84-1.24-1.7-1.24-0.79 0-1.36 0.32-1.36 1.05 0 1.63 4.9 1.29 4.9 4.38 0 1.95-1.23 2.93-3.34 2.93-1.56 0-3.02-0.87-3.56-2.25l1.5-0.66c0.43 0.9 1 1.49 2.07 1.49 0.91 0 1.61-0.34 1.61-1.27 0-1.87-4.9-1.5-4.9-4.43 0-1.7 1.42-2.66 3.07-2.66 1.53 0 2.79 0.76 3.36 2.15l-1.66 0.51z" fill="#7f8386"/>
  <path d="M131.03 72.95v1.53h-2.49v8h-1.82v-8h-2.49v-1.53h6.8z" fill="#7f8386"/>
  <path d="M134.83 82.48v-9.52h1.82v9.52h-1.82z" fill="#7f8386"/>
  <path d="M147.25 72.95v1.53h-2.49v8h-1.82v-8h-2.49v-1.53h6.8z" fill="#7f8386"/>
  <path d="M156.44 72.96h1.82v5.96c0 2.78-1.71 3.69-3.65 3.69s-3.65-0.91-3.65-3.69v-5.96h1.82v6.04c0 1.54 0.61 2.08 1.83 2.08s1.83-0.54 1.83-2.08v-6.04z" fill="#7f8386"/>
  <path d="M168.78 72.95v1.53h-2.49v8h-1.82v-8h-2.49v-1.53h6.8z" fill="#7f8386"/>
  <path d="M172.5 82.48v-9.52h6.3v1.53h-4.48v2.27h3.26v1.53h-3.26v2.66h4.63v1.53h-6.45z" fill="#7f8386"/>
</svg>